PathFileType	4	(X/Y/Z)
DataRate	CameraRate	NumFrames	NumMarkers	Units	OrigDataRate	OrigDataStartFrame	OrigNumFrames	
	120.0	120.0	6	39	mm	120.0	197	225
Frame#	Time	midhip	hip_r	hip_l	knee_r	knee_l	ankle_r	ankle_l	midasis	asis_r	asis_l	psis_r	psis_l	epicondLat_r	epicondLat_l	epicondMed_r	epicondMed_l	malleolusLat_r	malleolusLat_l	malleolusMedv_r	malleolusMedv_l	heel_r	heel_l	sternalnotch	xyphoidprocess	neck	subclavicle_r	subclavicle_l	toe_r	toe_l	thighwand_r	thighwand_l	upperleg1_r	upperleg1_l	upperleg2_r	upperleg2_l	shankwand_r	shankwand_l	lowerleg1_r	lowerleg1_l
	X1	Y1	Z1	X2	Y2	Z2	X3	Y3	Z3	X4	Y4	Z4	X5	Y5	Z5	X6	Y6	Z6	X7	Y7	Z7	X8	Y8	Z8	X9	Y9	Z9	X10	Y10	Z10	X11	Y11	Z11	X12	Y12	Z12	X13	Y13	Z13	X14	Y14	Z14	X15	Y15	Z15	X16	Y16	Z16	X17	Y17	Z17	X18	Y18	Z18	X19	Y19	Z19	X20	Y20	Z20	X21	Y21	Z21	X22	Y22	Z22	X23	Y23	Z23	X24	Y24	Z24	X25	Y25	Z25	X26	Y26	Z26	X27	Y27	Z27	X28	Y28	Z28	X29	Y29	Z29	X30	Y30	Z30	X31	Y31	Z31	X32	Y32	Z32	X33	Y33	Z33	X34	Y34	Z34	X35	Y35	Z35	X36	Y36	Z36	X37	Y37	Z37	X38	Y38	Z38	X39	Y39	Z39

	197	1.64167	712.544	910.909	-276.470	713.212	892.072	-224.114	705.852	894.545	-330.401	703.568	479.036	-200.576	698.277	482.890	-363.722	624.464	70.218	-179.160	655.666	68.844	-357.960	779.955	996.313	-279.736	787.314	993.840	-173.467	772.597	998.786	-386.006	580.700	1004.832	-224.825	572.179	1007.633	-309.706	717.143	482.016	-142.722	702.657	487.597	-422.874	690.088	499.755	-258.748	687.713	491.779	-315.128	623.303	72.429	-141.242	651.447	68.732	-397.234	621.660	70.347	-209.779	663.359	75.688	-328.821	580.151	45.808	-190.093	609.696	45.387	-356.083	697.732	1391.665	-281.603	734.459	1190.153	-289.313	610.903	1462.757	-282.676	716.017	1391.028	-200.924	704.604	1389.677	-356.162	745.215	42.876	-183.489	783.597	42.250	-373.407	759.729	601.079	-71.335	846.056	624.650	-366.641	768.439	658.931	-144.931	770.091	685.053	-400.940	764.623	576.806	-165.455	759.376	598.936	-402.777	654.602	143.734	-78.095	767.417	174.196	-358.518	645.184	202.182	-140.661	701.324	226.592	-366.411
	198	1.65000	712.591	910.951	-276.528	713.258	892.044	-224.145	705.840	894.512	-330.428	703.596	479.018	-200.610	698.280	482.875	-363.732	624.510	70.214	-179.168	655.676	68.844	-357.979	780.004	996.259	-279.813	787.419	993.792	-173.566	772.589	998.726	-386.060	580.753	1004.841	-224.803	572.191	1007.654	-309.691	717.188	481.996	-142.760	702.649	487.581	-422.885	690.048	499.739	-258.802	687.732	491.632	-315.328	623.359	72.426	-141.250	651.450	68.733	-397.252	621.679	70.319	-209.806	663.442	75.659	-328.846	580.227	45.803	-190.083	609.635	45.435	-356.092	697.654	1391.595	-281.639	734.126	1190.036	-289.342	610.974	1462.778	-282.613	715.800	1390.911	-200.967	704.652	1389.617	-356.151	745.227	42.856	-183.504	783.689	42.137	-373.321	759.812	601.075	-71.379	846.063	624.621	-366.722	768.512	658.879	-144.996	770.069	684.973	-400.997	764.653	576.739	-165.534	759.381	598.882	-402.893	654.653	143.722	-78.118	767.433	174.153	-358.536	645.332	202.129	-140.697	701.320	226.519	-366.436
	199	1.65833	712.641	910.994	-276.563	713.315	892.021	-224.167	705.845	894.484	-330.446	703.634	479.002	-200.643	698.280	482.854	-363.737	624.531	70.192	-179.185	655.669	68.831	-357.997	780.053	996.221	-279.873	787.519	993.758	-173.652	772.587	998.683	-386.094	580.794	1004.844	-224.787	572.201	1007.656	-309.679	717.236	481.978	-142.796	702.639	487.558	-422.890	690.044	499.731	-258.849	687.680	491.650	-315.422	623.388	72.403	-141.266	651.436	68.722	-397.269	621.674	70.321	-209.839	663.428	75.657	-328.870	580.250	45.789	-190.086	609.505	45.524	-356.097	697.607	1391.584	-281.674	733.970	1190.005	-289.344	611.039	1462.780	-282.549	715.646	1390.884	-200.997	704.701	1389.609	-356.158	745.240	42.844	-183.520	783.712	42.092	-373.311	759.878	601.059	-71.420	846.074	624.605	-366.791	768.581	658.854	-145.067	770.089	684.967	-401.082	764.693	576.710	-165.601	759.374	598.875	-402.979	654.689	143.713	-78.138	767.443	174.126	-358.556	645.421	202.127	-140.724	701.350	226.519	-366.515
	200	1.66667	712.664	910.990	-276.576	713.380	892.001	-224.185	705.864	894.465	-330.461	703.684	478.985	-200.675	698.279	482.827	-363.737	624.527	70.149	-179.204	655.661	68.805	-358.006	780.099	996.198	-279.920	787.609	993.736	-173.724	772.589	998.660	-386.115	580.827	1004.840	-224.774	572.209	1007.639	-309.668	717.289	481.959	-142.828	702.631	487.529	-422.891	690.104	499.732	-258.870	687.676	491.751	-315.324	623.386	72.361	-141.285	651.424	68.698	-397.278	621.652	70.334	-209.858	663.362	75.665	-328.876	580.206	45.777	-190.103	609.501	45.517	-356.101	697.731	1391.628	-281.642	734.216	1190.069	-289.275	611.109	1462.770	-282.507	715.861	1390.970	-200.953	704.744	1389.629	-356.163	745.250	42.839	-183.535	783.702	42.069	-373.327	759.930	601.031	-71.459	846.092	624.600	-366.841	768.678	658.853	-145.122	770.113	685.003	-401.125	764.762	576.718	-165.627	759.363	598.895	-402.972	654.711	143.703	-78.155	767.450	174.113	-358.578	645.447	202.145	-140.748	701.388	226.564	-366.568
	201	1.67500	712.669	910.955	-276.571	713.447	891.985	-224.202	705.892	894.454	-330.475	703.744	478.965	-200.703	698.278	482.798	-363.734	624.506	70.092	-179.223	655.653	68.767	-358.008	780.140	996.188	-279.955	787.688	993.721	-173.780	772.592	998.655	-386.131	580.853	1004.830	-224.762	572.216	1007.609	-309.657	717.345	481.936	-142.854	702.628	487.497	-422.889	690.205	499.744	-258.908	687.813	491.755	-315.220	623.363	72.305	-141.305	651.413	68.660	-397.279	621.628	70.326	-209.846	663.311	75.637	-328.866	580.138	45.758	-190.125	609.494	45.499	-356.097	697.796	1391.732	-281.561	734.452	1190.195	-288.954	611.187	1462.744	-282.483	715.948	1391.190	-200.840	704.790	1389.645	-356.119	745.258	42.838	-183.548	783.687	42.040	-373.337	759.976	600.992	-71.495	846.116	624.600	-366.869	768.758	658.860	-145.145	770.112	685.029	-401.116	764.840	576.734	-165.643	759.399	598.906	-402.937	654.726	143.690	-78.168	767.457	174.106	-358.594	645.408	202.143	-140.753	701.428	226.604	-366.575
	202	1.68333	712.675	910.917	-276.560	713.508	891.967	-224.213	705.921	894.445	-330.484	703.813	478.936	-200.724	698.286	482.764	-363.728	624.482	70.025	-179.239	655.640	68.720	-358.005	780.172	996.183	-279.978	787.752	993.707	-173.815	772.593	998.658	-386.140	580.873	1004.813	-224.750	572.223	1007.572	-309.648	717.406	481.907	-142.873	702.638	487.460	-422.882	690.235	499.762	-258.938	687.924	491.701	-315.176	623.334	72.240	-141.321	651.401	68.614	-397.276	621.627	70.282	-209.807	663.278	75.567	-328.858	580.080	45.727	-190.143	609.485	45.471	-356.087	697.752	1391.765	-281.502	734.397	1190.219	-288.689	611.266	1462.707	-282.441	715.823	1391.290	-200.747	704.820	1389.617	-356.065	745.264	42.838	-183.555	783.674	42.009	-373.338	760.020	600.946	-71.526	846.149	624.599	-366.876	768.832	658.848	-145.155	770.102	685.018	-401.102	764.887	576.713	-165.662	759.429	598.880	-402.918	654.744	143.672	-78.176	767.468	174.094	-358.595	645.408	202.108	-140.760	701.434	226.577	-366.556
